<?xml version="1.0" standalone="no"?>
<!DOCTYPE svg PUBLIC "-//W3C//DTD SVG 20010904//EN"
 "http://www.w3.org/TR/2001/REC-SVG-20010904/DTD/svg10.dtd">
<svg version="1.0" xmlns="http://www.w3.org/2000/svg"
 width="896.000000pt" height="896.000000pt" viewBox="0 0 896.000000 896.000000"
 preserveAspectRatio="xMidYMid meet">
<metadata>
Created by potrace 1.14, written by Peter Selinger 2001-2017
</metadata>
<g transform="translate(0.000000,896.000000) scale(0.100000,-0.100000)"
fill="#000000" stroke="none">
<path d="M2395 8944 c-229 -40 -439 -150 -605 -314 -100 -100 -112 -115 -166
-200 -59 -93 -87 -153 -122 -255 -65 -193 -61 84 -61 -3695 0 -1899 4 -3455 9
-3480 4 -25 11 -61 14 -82 8 -54 52 -185 87 -258 79 -167 226 -342 376 -448
125 -89 323 -172 473 -200 19 -3 946 -7 2060 -9 2085 -2 2029 -3 2195 31 46
10 165 56 233 90 139 70 305 208 388 321 16 22 31 42 34 45 11 10 45 67 78
130 59 112 94 219 121 370 7 36 10 1268 10 3490 0 2879 -2 3447 -14 3512 -16
88 -33 156 -46 180 -5 10 -9 22 -9 28 0 22 -74 168 -124 245 -54 83 -190 229
-261 281 -22 16 -42 31 -45 34 -3 3 -15 11 -27 18 -13 6 -33 18 -45 25 -13 6
-25 15 -28 18 -7 8 -196 88 -222 93 -13 3 -41 10 -63 15 -22 5 -56 13 -75 17
-19 5 -946 9 -2060 10 -1707 2 -2038 0 -2105 -12z m4060 -167 c464 -38 834
-407 882 -878 5 -41 7 -1597 7 -3459 -1 -3157 -3 -3390 -19 -3465 -9 -44 -26
-107 -37 -140 -21 -59 -85 -195 -97 -205 -3 -3 -19 -25 -35 -49 -38 -60 -170
-188 -239 -234 -128 -85 -300 -149 -439 -163 -76 -7 -3944 -7 -3998 0 -25 4
-56 9 -70 11 -14 3 -34 7 -45 9 -33 7 -144 46 -194 68 -130 60 -295 202 -378
323 -66 98 -131 241 -149 330 -8 36 -13 70 -20 115 -8 59 -9 6785 -1 6870 11
111 44 221 103 338 31 61 60 112 64 112 5 0 11 9 15 19 8 27 149 169 216 218
105 77 261 144 389 168 19 4 71 9 115 12 44 3 81 6 82 7 5 4 3791 -3 3848 -7z"/>
<path d="M2325 6860 c-9 -15 -14 -60 -6 -61 3 0 15 -2 26 -4 11 -2 40 -6 65
-9 150 -18 237 -78 279 -191 38 -102 42 -229 16 -585 -2 -36 -7 -110 -10 -165
-3 -55 -8 -138 -10 -185 -3 -47 -7 -128 -10 -180 -8 -163 -22 -348 -30 -420
-2 -14 -6 -51 -10 -84 -8 -74 -30 -141 -64 -189 -31 -45 -124 -94 -209 -111
-51 -11 -57 -14 -60 -39 l-3 -27 118 5 c132 6 539 8 622 3 52 -3 54 -2 57 25
2 20 -2 27 -14 28 -60 2 -159 26 -209 50 -32 16 -48 32 -67 71 l-26 52 5 325
c3 179 7 351 9 381 2 30 7 105 11 165 3 61 8 133 11 160 2 28 6 84 9 125 3 41
8 98 10 125 2 28 7 85 11 128 3 43 7 86 9 95 2 9 4 35 4 57 1 36 2 38 14 20 8
-11 60 -110 117 -220 56 -110 124 -240 150 -290 99 -188 236 -454 285 -550 27
-55 52 -102 55 -105 12 -11 121 -260 155 -355 20 -55 39 -107 42 -115 4 -8 7
-17 8 -20 0 -3 11 -36 24 -73 21 -62 25 -68 48 -65 22 3 30 15 59 96 18 51 40
107 48 125 48 105 68 152 65 152 -2 0 4 14 13 30 9 17 40 80 68 140 29 61 61
128 72 150 25 54 143 280 308 590 20 39 65 124 100 190 35 66 66 125 70 130 4
6 29 52 55 103 26 51 49 91 51 89 3 -2 7 -24 9 -48 2 -24 7 -60 10 -79 20
-136 35 -479 40 -960 4 -327 1 -364 -29 -465 -16 -52 -51 -99 -96 -127 -27
-16 -157 -61 -178 -61 -9 0 -12 -14 -10 -46 3 -45 4 -46 43 -52 64 -11 86 -17
111 -34 24 -15 56 -58 61 -79 1 -6 4 -22 8 -36 16 -69 19 -199 19 -830 0 -724
-6 -899 -31 -975 -4 -11 -8 -26 -9 -33 -5 -26 -47 -79 -73 -89 -76 -33 -101
-41 -101 -35 -1 4 -10 -4 -20 -17 -32 -37 -11 -53 59 -46 140 15 184 17 306
17 72 0 148 -2 170 -5 171 -25 223 -20 208 19 -4 12 -72 39 -121 49 -43 8 -88
36 -105 64 -19 33 -35 104 -43 201 -8 80 -12 730 -6 748 3 7 11 11 19 8 14 -6
135 -15 278 -21 39 -1 72 -3 76 -4 3 -1 32 -40 65 -87 32 -47 74 -105 92 -129
17 -24 32 -48 32 -54 0 -5 3 -11 8 -13 4 -1 41 -50 82 -108 262 -366 451 -554
678 -673 80 -42 105 -51 202 -78 50 -14 210 -20 232 -8 20 11 24 34 8 44 -6 4
-23 9 -38 11 -181 32 -348 154 -554 406 -15 18 -37 44 -49 58 -47 55 -396 561
-452 656 -4 6 17 20 51 34 435 180 555 634 248 934 -91 89 -265 173 -396 190
-25 3 -54 8 -65 10 -11 2 -69 7 -130 11 -159 9 -204 21 -242 65 -50 56 -66
150 -79 455 -26 653 -35 1183 -22 1318 9 90 38 160 78 189 23 17 107 40 193
53 34 5 37 9 37 38 l0 32 -247 0 -248 0 -41 -80 c-121 -239 -158 -310 -163
-315 -3 -3 -25 -43 -49 -90 -23 -47 -63 -123 -88 -170 -25 -47 -71 -134 -103
-195 -32 -60 -76 -144 -98 -185 -22 -41 -72 -136 -111 -210 -39 -74 -91 -173
-116 -220 -25 -47 -51 -96 -58 -110 -26 -53 -83 -150 -88 -150 -3 0 -13 15
-21 33 -14 29 -40 79 -152 287 -22 41 -56 104 -75 140 -78 148 -137 259 -170
320 -118 218 -347 686 -393 803 -58 150 -51 143 -139 138 -39 -2 -139 0 -205
4 -33 1 -121 6 -195 10 -74 4 -138 9 -142 11 -4 3 -10 -1 -13 -6z m3011 -2254
c90 -14 217 -89 289 -168 36 -41 88 -118 79 -118 -4 0 0 -8 8 -17 15 -18 43
-95 55 -150 12 -60 5 -226 -12 -253 -3 -5 -8 -18 -10 -29 -6 -30 -51 -96 -97
-142 -41 -41 -136 -93 -188 -103 -14 -3 -41 -10 -60 -16 -79 -27 -482 -18
-500 11 -7 10 -4 348 5 569 13 342 17 359 83 387 82 34 238 47 348 29z"/>
</g>
</svg>
