<!-- Extracted from "https://s3-eu-west-1.amazonaws.com/polarsteps/assets/svg-defs-8c4952a0bbcbea6a8015.svg" -> xlink:href "#icon-polarsteps-logo" with Affinity Designer 2 -->
<?xml version="1.0" encoding="UTF-8" standalone="no"?>
<!DOCTYPE svg PUBLIC "-//W3C//DTD SVG 1.1//EN" "http://www.w3.org/Graphics/SVG/1.1/DTD/svg11.dtd">
<svg viewBox="0 0 120 120" version="1.1" xmlns="http://www.w3.org/2000/svg" xmlns:xlink="http://www.w3.org/1999/xlink" xml:space="preserve" xmlns:serif="http://www.serif.com/" style="fill-rule:evenodd;clip-rule:evenodd;stroke-linejoin:round;stroke-miterlimit:2;">
    <path d="M60,120C26.863,120 0,93.137 0,60C0,26.863 26.863,0 60,0C93.137,0 120,26.863 120,60C120,93.137 93.137,120 60,120ZM60,108C86.51,108 108,86.51 108,60C108,33.49 86.51,12 60,12C33.49,12 12,33.49 12,60C12,86.51 33.49,108 60,108ZM49.16,67.796L55.312,65.216C56.596,66.367 58.26,67.004 59.984,67.004C63.704,67.004 66.807,64.039 66.977,60.323L73.126,57.743C73.371,57.64 73.634,57.587 73.899,57.587C74.981,57.587 75.876,58.465 75.898,59.546L75.899,93.156C75.899,93.17 75.899,93.183 75.899,93.197C75.899,94.294 74.997,95.197 73.899,95.197C73.361,95.197 72.845,94.98 72.469,94.595L48.502,71.037C48.138,70.664 47.934,70.162 47.934,69.641C47.934,68.837 48.419,68.108 49.16,67.797L49.16,67.796ZM70.806,52.206L64.653,54.788C63.369,53.637 61.705,53 59.981,53C56.261,53 53.158,55.965 52.988,59.681L46.84,62.26C46.595,62.363 46.332,62.416 46.067,62.416C44.986,62.416 44.09,61.539 44.068,60.458L44.067,26.848C44.067,26.834 44.067,26.82 44.067,26.806C44.067,25.709 44.969,24.806 46.067,24.806C46.605,24.806 47.121,25.023 47.497,25.408L71.465,48.966C71.829,49.339 72.033,49.841 72.033,50.362C72.033,51.166 71.548,51.895 70.807,52.206L70.806,52.206Z" style="fill:white;"/>
</svg>
